<svg xmlns="http://www.w3.org/2000/svg" width="542.392" height="110.869"><g fill="#FFF" stroke="#FFF" stroke-miterlimit="10" stroke-width="4"><path d="M24.6 95.22c-5.25-2.9-8.87-6.7-10.85-11.4-.33-.8-.5-1.45-.5-1.98 0-1 .37-1.87 1.1-2.63a5.58 5.58 0 019.11 1.83c1.2 2.58 3.54 4.76 7.04 6.55a25.18 25.18 0 0011.6 2.67c4.95 0 9.15-1.14 12.59-3.42 3.43-2.28 5.15-5.4 5.15-9.36 0-3.77-1.45-7-4.36-9.67-2.9-2.67-7.33-4.31-13.28-4.9-8.2-.8-14.64-3.2-19.33-7.2-4.7-3.99-7.04-9-7.04-15 0-4.24 1.2-7.89 3.62-10.96 2.41-3.07 5.71-5.42 9.91-7.04s8.9-2.43 14.13-2.43c5.68 0 10.47 1.16 14.37 3.47 3.9 2.32 7.2 5.62 9.91 9.91a6.74 6.74 0 011.19 3.57 4.2 4.2 0 01-1.98 3.57c-.73.46-1.59.7-2.58.7a5.46 5.46 0 01-4.76-2.78 18.85 18.85 0 00-6.69-6.8c-2.67-1.54-6.06-2.32-10.16-2.32-5.02 0-9.08.97-12.19 2.92A9.41 9.41 0 0025.94 41c0 3.43 1.39 6.3 4.17 8.62 2.77 2.31 7.73 3.83 14.86 4.56 7.93.8 14.08 3.19 18.44 7.19 4.36 4 6.54 9.27 6.54 15.8 0 4.76-1.29 8.85-3.86 12.25a23.3 23.3 0 01-10.26 7.63 37 37 0 01-13.73 2.53c-6.41 0-12.24-1.45-17.5-4.36zM110.84 90.06a5.16 5.16 0 011.24 3.57c0 1.46-.55 2.65-1.64 3.57a6.28 6.28 0 01-4.21 1.39h-1.79c-3.23 0-6.2-.85-8.87-2.53a17.6 17.6 0 01-6.3-6.89A20.85 20.85 0 0187 79.36V54.88h-4.56c-1.39 0-2.51-.4-3.37-1.2a3.88 3.88 0 01-1.29-2.97 4.1 4.1 0 011.29-3.17 4.77 4.77 0 013.37-1.19H87V32.08c0-1.45.46-2.64 1.39-3.57a4.83 4.83 0 013.57-1.39c1.45 0 2.64.47 3.56 1.4a4.83 4.83 0 011.4 3.56v14.27h8.42c1.38 0 2.5.4 3.37 1.2.85.78 1.29 1.84 1.29 3.16 0 1.2-.44 2.18-1.3 2.98a4.77 4.77 0 01-3.36 1.18H96.9v24.49c0 2.64.73 4.85 2.18 6.64a6.66 6.66 0 005.36 2.67h3.37c1.18 0 2.19.47 3.02 1.4zM159.26 45.36c1.98 1.06 2.97 2.38 2.97 3.97 0 .46-.03.79-.1.99-.6 2.11-1.92 3.17-3.96 3.17-.34 0-.83-.07-1.5-.2-2.63-.46-4.78-.7-6.43-.7-4.76 0-8.6 1.1-11.5 3.28a10.46 10.46 0 00-4.36 8.82v28.94c0 1.59-.42 2.81-1.24 3.67-.83.86-2.07 1.29-3.72 1.29-1.58 0-2.8-.41-3.67-1.24-.86-.83-1.28-2.07-1.28-3.72v-44.3c0-1.59.42-2.81 1.28-3.67.86-.86 2.09-1.29 3.67-1.29 3.3 0 4.96 1.65 4.96 4.96v1.88a20.91 20.91 0 017.33-5.45 22.25 22.25 0 019.32-1.98c3.5 0 6.24.52 8.23 1.58zM174.07 33.62c-1.29-1.3-1.93-2.83-1.93-4.61s.64-3.32 1.93-4.61 2.83-1.94 4.61-1.94c1.79 0 3.32.65 4.61 1.94s1.93 2.82 1.93 4.6-.64 3.33-1.93 4.62-2.82 1.93-4.6 1.93a6.3 6.3 0 01-4.62-1.93zm1 63.53a4.9 4.9 0 01-1.44-3.62v-44.1c0-1.53.48-2.75 1.43-3.67a5 5 0 013.62-1.39c1.52 0 2.74.46 3.67 1.39a4.96 4.96 0 011.39 3.66v44.11a5 5 0 01-1.4 3.62 4.86 4.86 0 01-3.66 1.44 4.9 4.9 0 01-3.62-1.44zM217.04 33.96c-2.25 2.45-3.37 5.69-3.37 9.72v2.67h10.11c1.39 0 2.51.4 3.37 1.2.86.78 1.29 1.84 1.29 3.16 0 1.2-.43 2.18-1.29 2.98a4.77 4.77 0 01-3.37 1.19h-10.11v38.65c0 1.52-.46 2.74-1.39 3.67a5.22 5.22 0 01-3.86 1.39 4.86 4.86 0 01-4.86-5.06V54.88h-4.26c-1.39 0-2.51-.4-3.37-1.2a3.88 3.88 0 01-1.3-2.97 4.1 4.1 0 011.3-3.17 4.77 4.77 0 013.37-1.19h4.26v-1.68c0-4.7.94-8.8 2.82-12.34a20.24 20.24 0 017.93-8.23 23.02 23.02 0 0111.65-2.92c1.45 0 2.66.43 3.62 1.29a4.2 4.2 0 011.44 3.27 4.2 4.2 0 01-1.44 3.27 5.21 5.21 0 01-3.62 1.29c-3.7 0-6.67 1.22-8.92 3.66zM287.31 45.66a4.96 4.96 0 011.4 3.67v44.2a5 5 0 01-1.4 3.62 4.86 4.86 0 01-3.66 1.44 4.9 4.9 0 01-5.06-5.06v-1.09a22 22 0 01-7.53 4.9 24.98 24.98 0 01-9.32 1.74c-4.56 0-8.66-.99-12.29-2.97a20.93 20.93 0 01-8.52-8.67c-2.05-3.8-3.08-8.38-3.08-13.73V49.33a4.9 4.9 0 015.06-5.06 4.91 4.91 0 015.05 5.06V73.7c0 5.35 1.44 9.4 4.32 12.14 2.87 2.74 6.69 4.12 11.44 4.12 2.78 0 5.3-.57 7.59-1.7a13.44 13.44 0 005.35-4.55 11.29 11.29 0 001.93-6.44V49.33c0-1.52.48-2.75 1.44-3.67a5 5 0 013.62-1.39c1.52 0 2.74.46 3.66 1.39zM313.58 96.9c-3.96-1.38-7.07-3.2-9.32-5.45a4.2 4.2 0 01-1.28-3.07c0-1.59.66-2.88 1.98-3.87a6 6 0 013.47-1.38c1.32 0 2.57.59 3.76 1.78 1.26 1.39 3.14 2.6 5.65 3.62a21.03 21.03 0 008.03 1.53c3.77 0 6.7-.62 8.77-1.88 2.08-1.25 3.13-2.94 3.13-5.06 0-2.04-1.03-3.74-3.08-5.1-2.05-1.35-5.52-2.5-10.4-3.42-12.7-2.44-19.04-7.66-19.04-15.66 0-3.24.96-5.98 2.88-8.23a17.48 17.48 0 017.53-5.05c3.1-1.12 6.41-1.69 9.91-1.69 4.3 0 8.15.7 11.55 2.09 3.4 1.38 6.1 3.3 8.08 5.74a5.04 5.04 0 011.29 3.18c0 1.12-.57 2.14-1.69 3.07-.73.53-1.65.8-2.77.8a6.77 6.77 0 01-4.66-1.9 14.83 14.83 0 00-5.26-3.21c-1.85-.63-4.1-.94-6.73-.94-3.04 0-5.54.5-7.49 1.53-1.95 1.03-2.92 2.46-2.92 4.31 0 1.33.33 2.43.99 3.33s1.92 1.71 3.77 2.47c1.85.76 4.52 1.5 8.03 2.23 7.2 1.46 12.3 3.47 15.3 6.05 3.01 2.58 4.52 5.91 4.52 10.01 0 3.04-.83 5.8-2.48 8.28a16.5 16.5 0 01-7.28 5.84c-3.21 1.43-7.06 2.14-11.55 2.14s-8.72-.7-12.69-2.09zM361.8 33.62c-1.29-1.3-1.93-2.83-1.93-4.61s.64-3.32 1.93-4.61c1.3-1.3 2.83-1.94 4.61-1.94s3.32.65 4.61 1.94c1.29 1.29 1.93 2.82 1.93 4.6s-.64 3.33-1.93 4.62c-1.29 1.28-2.83 1.93-4.6 1.93s-3.33-.65-4.62-1.93zm1 63.53a4.9 4.9 0 01-1.44-3.62v-44.1c0-1.53.47-2.75 1.43-3.67a5 5 0 013.62-1.39c1.52 0 2.74.46 3.67 1.39a4.96 4.96 0 011.39 3.66v44.11a5 5 0 01-1.4 3.62 4.87 4.87 0 01-3.66 1.44 4.9 4.9 0 01-3.62-1.44zM400.7 95.47a24.87 24.87 0 01-9.7-9.77 28.68 28.68 0 01-3.48-14.17c0-5.36 1.16-10.11 3.47-14.28a24.87 24.87 0 019.71-9.76 28.37 28.37 0 0114.18-3.52c5.22 0 9.9 1.18 14.02 3.52a25.3 25.3 0 019.72 9.76 28.58 28.58 0 013.52 14.28c0 5.28-1.16 10-3.47 14.17a24.96 24.96 0 01-9.67 9.77 28.1 28.1 0 01-14.12 3.51 28.37 28.37 0 01-14.18-3.51zm23.25-7.78a16.44 16.44 0 006.24-6.6c1.49-2.8 2.23-6 2.23-9.56s-.74-6.77-2.23-9.62a16.38 16.38 0 00-6.24-6.64 17.45 17.45 0 00-9.07-2.38c-3.37 0-6.4.8-9.07 2.38a16.72 16.72 0 00-6.3 6.64c-1.52 2.85-2.27 6.05-2.27 9.62s.76 6.76 2.28 9.56c1.52 2.81 3.61 5 6.29 6.6a17.45 17.45 0 009.07 2.37c3.37 0 6.4-.79 9.07-2.38zM496.45 46.85a20.95 20.95 0 018.53 8.67c2.04 3.8 3.07 8.38 3.07 13.73v24.38a4.9 4.9 0 01-5.06 5.06 4.9 4.9 0 01-5.05-5.06V69.25c0-5.35-1.44-9.4-4.31-12.14-2.88-2.74-6.7-4.12-11.45-4.12-2.78 0-5.3.57-7.58 1.69a13.47 13.47 0 00-5.36 4.56 11.29 11.29 0 00-1.93 6.44v27.95a5 5 0 01-1.39 3.62 4.87 4.87 0 01-3.67 1.44 4.9 4.9 0 01-5.05-5.06v-44.2c0-1.53.48-2.75 1.44-3.67a5 5 0 013.61-1.39c1.52 0 2.74.46 3.67 1.39a4.96 4.96 0 011.39 3.66v1.1a22.02 22.02 0 017.53-4.91 25 25 0 019.32-1.74c4.56 0 8.66 1 12.3 2.98z"/></g><circle cx="180.261" cy="28.261" r="9.783" fill="#4C4FA1" stroke="#FFF" stroke-miterlimit="10" stroke-width="4"/><circle cx="366.392" cy="29.261" r="9.782" fill="#4C4FA1" stroke="#FFF" stroke-miterlimit="10" stroke-width="4"/></svg>